<svg xmlns="http://www.w3.org/2000/svg" width="82.375" height="82.375" viewBox="0 0 82.375 82.375"><defs><style>.a{opacity:0.72;}.b{fill:#f5ffff;}</style></defs><g class="a"><path class="b" d="M41.188,0A41.188,41.188,0,1,0,82.375,41.187,41.188,41.188,0,0,0,41.188,0ZM12.356,51A120.773,120.773,0,0,1,30.921,48.39s2,7.874,2.93,22.358A30.575,30.575,0,0,1,12.356,51Zm28.831-2.947A3.432,3.432,0,1,1,44.62,44.62,3.432,3.432,0,0,1,41.188,48.052Zm7.337,22.7c.934-14.492,2.931-22.361,2.931-22.361A120.736,120.736,0,0,1,70.02,51a30.576,30.576,0,0,1-21.5,19.75ZM41.188,34.323a89.691,89.691,0,0,0-30.426,5.444A30.456,30.456,0,0,1,71.619,40a86.537,86.537,0,0,0-30.431-5.672Z"/></g></svg>