<svg xmlns="http://www.w3.org/2000/svg" width="82.664" height="82.664" viewBox="0 0 82.664 82.664"><defs><style>.a{opacity:0.72;}.b{fill:#f5ffff;}</style></defs><g class="a"><path class="b" d="M79.22,20.666H62V3.444A3.254,3.254,0,0,0,58.554,0H24.11a3.254,3.254,0,0,0-3.444,3.444V20.666H3.444A3.254,3.254,0,0,0,0,24.11V34.443H6.889V27.555H24.11a3.254,3.254,0,0,0,3.444-3.444V6.889H55.109V24.11a3.254,3.254,0,0,0,3.444,3.444H75.775v6.889h6.889V24.11A3.254,3.254,0,0,0,79.22,20.666Z"/><g transform="translate(0 48.221)"><path class="b" d="M75.775,298.667v6.889H58.554A3.254,3.254,0,0,0,55.109,309v17.222H27.555V309a3.254,3.254,0,0,0-3.444-3.444H6.889v-6.889H0V309a3.254,3.254,0,0,0,3.444,3.444H20.666v17.222a3.254,3.254,0,0,0,3.444,3.444H58.554A3.254,3.254,0,0,0,62,329.666V312.444H79.22A3.254,3.254,0,0,0,82.664,309V298.667Z" transform="translate(0 -298.667)"/></g><g transform="translate(0 20.573)"><path class="b" d="M54.076,144.737l-6.2-15.155c-1.033-3.1-5.855-2.756-6.544.344l-6.889,21.01-3.789-10.677c-.689-2.411-4.133-3.444-5.855-1.378l-5.511,5.855H0v6.889H20.666a3.126,3.126,0,0,0,2.411-1.033l3.1-3.1,5.167,15.5a3.465,3.465,0,0,0,6.544,0l7.233-22.044,3.444,8.611a3.31,3.31,0,0,0,3.1,2.067h31v-6.889H54.076Z" transform="translate(0 -127.422)"/></g></g></svg>