<svg xmlns="http://www.w3.org/2000/svg" width="86.188" height="42.023" viewBox="0 0 86.188 42.023"><defs><style>.a{fill:#f5ffff;}</style></defs><path class="a" d="M81.559,14.171a34.023,34.023,0,0,1-9.987,2.463,41.185,41.185,0,0,0,8.4.457,35.36,35.36,0,0,1-8.482,9.77q-.375.3-.754.58H63.429c-.13-.05-.259-.1-.387-.156a1.289,1.289,0,0,0,.111.156H23.034a1.29,1.29,0,0,0,.111-.156c-.128.054-.257.1-.387.156h-7.3q-.38-.282-.754-.58a35.332,35.332,0,0,1-8.484-9.77,41.185,41.185,0,0,0,8.4-.457,34.023,34.023,0,0,1-9.987-2.463A56.722,56.722,0,0,1,0,0,93.908,93.908,0,0,0,29.438,10.4s1.459,7.369,8.646,8.171c.555-1.874.987-3.444,1.356-4.734.921-3.205,1.455-4.682,2.547-4.787.409-.039.777-.073,1.106-.088a2.545,2.545,0,0,1,2.067.563c.8-.11,3.222-.716,3.294,2.14a2.237,2.237,0,0,0-1.884-.074,25.7,25.7,0,0,0,.325,3.342,10.175,10.175,0,0,0,.988,3.5c7.187-.8,8.865-8.037,8.865-8.037A93.908,93.908,0,0,0,86.188,0,56.722,56.722,0,0,1,81.559,14.171Z"/><rect class="a" width="86.188" height="1.688" transform="translate(0 26.861)"/><path class="a" d="M3.84,298h8.823v2.226H9.641v9.181H6.862v-9.178H3.84Z" transform="translate(-3.447 -267.501)"/><path class="a" d="M104.965,308.124a5.842,5.842,0,1,1,5.834-5.85A5.739,5.739,0,0,1,104.965,308.124Zm0-2.535c1.82,0,3.006-1.316,3.006-3.315,0-2.032-1.186-3.315-3.006-3.315-1.852,0-3.022,1.283-3.022,3.315C101.943,304.276,103.113,305.589,104.965,305.589Z" transform="translate(-88.958 -266.101)"/><path class="a" d="M229.772,308.124c-2.456,0-4.371-1.219-4.452-3.527h2.958a1.308,1.308,0,0,0,1.413,1.3c.813,0,1.33-.409,1.33-1.073,0-2.112-5.7-.975-5.671-5.021,0-2.162,1.771-3.364,4.159-3.364,2.486,0,4.16,1.235,4.274,3.412h-3a1.235,1.235,0,0,0-1.316-1.186,1.013,1.013,0,0,0-1.171,1.041c0,1.982,5.639,1.088,5.639,4.906C233.932,306.527,232.437,308.124,229.772,308.124Z" transform="translate(-202.26 -266.101)"/><path class="a" d="M333.241,304.714h-4.322v4.7H326.14V298h2.779v4.468h4.322V298h2.779v11.41h-2.779Z" transform="translate(-292.761 -267.501)"/><path class="a" d="M444.979,304.373v5.037H442.2V298h2.779v5l3.8-5h3.266l-4.419,5.59,4.582,5.82h-3.4Z" transform="translate(-396.943 -267.501)"/><path class="a" d="M559.847,300.229h-4.209v2.308h3.721v2.144h-3.721v2.5h4.208v2.227H552.86V298h6.987Z" transform="translate(-496.278 -267.501)"/><path class="a" d="M648.964,298v11.41h-2.779l-4.647-7.036v7.036H638.76V298h2.778l4.647,7.068V298Z" transform="translate(-573.386 -267.501)"/><path class="a" d="M752.12,298h8.823v2.226h-3.022v9.181h-2.779v-9.178H752.12Z" transform="translate(-675.145 -267.501)"/></svg>