<svg xmlns="http://www.w3.org/2000/svg" width="53.342" height="82.761" viewBox="0 0 53.342 82.761"><defs><style>.a{opacity:0.72;}.b{fill:#f5ffff;}</style></defs><g class="a"><path class="b" d="M152.425,331a2.425,2.425,0,1,0,2.425,2.425A2.426,2.426,0,0,0,152.425,331Zm0,0" transform="translate(-125.754 -277.496)"/><path class="b" d="M152.425,211a2.425,2.425,0,1,0,2.425,2.425A2.426,2.426,0,0,0,152.425,211Zm0,0" transform="translate(-125.754 -176.894)"/><path class="b" d="M152.425,91a2.425,2.425,0,1,0,2.425,2.425A2.426,2.426,0,0,0,152.425,91Zm0,0" transform="translate(-125.754 -76.291)"/><path class="b" d="M120,483.586a2.424,2.424,0,0,0,2.425,2.425h9.7a2.424,2.424,0,0,0,2.425-2.425V481H120Zm0,0" transform="translate(-100.603 -403.25)"/><path class="b" d="M292.274,63.425A2.424,2.424,0,0,0,289.849,61H285V74.5A12.114,12.114,0,0,0,292.274,63.425Zm0,0" transform="translate(-238.932 -51.14)"/><path class="b" d="M0,63.425A12.114,12.114,0,0,0,7.274,74.5V61H2.425A2.424,2.424,0,0,0,0,63.425Zm0,0" transform="translate(0 -51.14)"/><path class="b" d="M0,183.425A12.114,12.114,0,0,0,7.274,194.5V181H2.425A2.424,2.424,0,0,0,0,183.425Zm0,0" transform="translate(0 -151.743)"/><path class="b" d="M0,303.425A12.114,12.114,0,0,0,7.274,314.5V301H2.425A2.424,2.424,0,0,0,0,303.425Zm0,0" transform="translate(0 -252.346)"/><path class="b" d="M99.246,0h-19.4A4.849,4.849,0,0,0,75,4.849v63.2A4.849,4.849,0,0,0,79.849,72.9h19.4a4.849,4.849,0,0,0,4.849-4.849V4.849A4.849,4.849,0,0,0,99.246,0Zm-9.7,63.2a7.274,7.274,0,1,1,7.274-7.274A7.282,7.282,0,0,1,89.548,63.2Zm0-19.4a7.274,7.274,0,1,1,7.274-7.274A7.282,7.282,0,0,1,89.548,43.805Zm0-19.4a7.274,7.274,0,1,1,7.274-7.274A7.282,7.282,0,0,1,89.548,24.408Zm0,0" transform="translate(-62.877)"/><path class="b" d="M289.849,301H285v13.5a12.114,12.114,0,0,0,7.274-11.075A2.424,2.424,0,0,0,289.849,301Zm0,0" transform="translate(-238.932 -252.346)"/><path class="b" d="M289.849,181H285v13.5a12.114,12.114,0,0,0,7.274-11.075A2.424,2.424,0,0,0,289.849,181Zm0,0" transform="translate(-238.932 -151.743)"/></g></svg>